<svg xmlns="http://www.w3.org/2000/svg" width="1200" height="800" viewBox="0 0 1200 800" fill="none">
  <defs>
    <linearGradient id="bg" x1="0" y1="0" x2="1200" y2="800" gradientUnits="userSpaceOnUse">
      <stop stop-color="#EFF6FF"/>
      <stop offset="1" stop-color="#DBEAFE"/>
    </linearGradient>
  </defs>
  <rect width="1200" height="800" rx="20" fill="url(#bg)"/>
  <rect x="50" y="50" width="1100" height="700" rx="16" fill="#FFFFFF" stroke="#E2E8F0" stroke-width="2"/>
  <rect x="90" y="95" width="220" height="610" rx="12" fill="#F8FAFC" stroke="#E2E8F0"/>
  <rect x="350" y="95" width="760" height="90" rx="12" fill="#F8FAFC" stroke="#E2E8F0"/>
  <rect x="380" y="120" width="220" height="16" rx="8" fill="#CBD5E1"/>
  <rect x="930" y="115" width="140" height="28" rx="14" fill="#2563EB"/>
  <rect x="930" y="155" width="140" height="16" rx="8" fill="#CBD5E1"/>

  <rect x="350" y="210" width="178" height="132" rx="12" fill="#FFFFFF" stroke="#E2E8F0"/>
  <rect x="546" y="210" width="178" height="132" rx="12" fill="#FFFFFF" stroke="#E2E8F0"/>
  <rect x="742" y="210" width="178" height="132" rx="12" fill="#FFFFFF" stroke="#E2E8F0"/>
  <rect x="938" y="210" width="172" height="132" rx="12" fill="#FFFFFF" stroke="#E2E8F0"/>

  <rect x="374" y="234" width="70" height="14" rx="7" fill="#CBD5E1"/>
  <rect x="374" y="258" width="90" height="30" rx="8" fill="#2563EB"/>
  <rect x="570" y="234" width="70" height="14" rx="7" fill="#CBD5E1"/>
  <rect x="570" y="258" width="90" height="30" rx="8" fill="#0D9488"/>
  <rect x="766" y="234" width="70" height="14" rx="7" fill="#CBD5E1"/>
  <rect x="766" y="258" width="90" height="30" rx="8" fill="#F59E0B"/>
  <rect x="962" y="234" width="70" height="14" rx="7" fill="#CBD5E1"/>
  <rect x="962" y="258" width="90" height="30" rx="8" fill="#16A34A"/>

  <rect x="350" y="365" width="470" height="340" rx="12" fill="#FFFFFF" stroke="#E2E8F0"/>
  <rect x="840" y="365" width="270" height="340" rx="12" fill="#FFFFFF" stroke="#E2E8F0"/>
  <rect x="374" y="389" width="170" height="14" rx="7" fill="#CBD5E1"/>
  <rect x="864" y="389" width="140" height="14" rx="7" fill="#CBD5E1"/>

  <rect x="380" y="440" width="410" height="12" rx="6" fill="#E2E8F0"/>
  <rect x="380" y="470" width="320" height="12" rx="6" fill="#E2E8F0"/>
  <rect x="380" y="500" width="370" height="12" rx="6" fill="#E2E8F0"/>
  <rect x="380" y="530" width="280" height="12" rx="6" fill="#E2E8F0"/>
  <rect x="380" y="560" width="340" height="12" rx="6" fill="#E2E8F0"/>

  <rect x="864" y="440" width="220" height="12" rx="6" fill="#E2E8F0"/>
  <rect x="864" y="470" width="200" height="12" rx="6" fill="#E2E8F0"/>
  <rect x="864" y="500" width="230" height="12" rx="6" fill="#E2E8F0"/>
  <rect x="864" y="530" width="180" height="12" rx="6" fill="#E2E8F0"/>
  <rect x="864" y="560" width="210" height="12" rx="6" fill="#E2E8F0"/>

  <rect x="90" y="120" width="160" height="14" rx="7" fill="#CBD5E1"/>
  <rect x="90" y="170" width="180" height="34" rx="10" fill="#2563EB"/>
  <rect x="90" y="225" width="180" height="34" rx="10" fill="#FFFFFF" stroke="#E2E8F0"/>
  <rect x="90" y="280" width="180" height="34" rx="10" fill="#FFFFFF" stroke="#E2E8F0"/>
  <rect x="90" y="335" width="180" height="34" rx="10" fill="#FFFFFF" stroke="#E2E8F0"/>
</svg>
